<svg xmlns="http://www.w3.org/2000/svg" viewBox="0 0 104 11" fill="black" height="30px" width="300px" class="astro-J7PV25F6"><path fill-rule="evenodd" clip-rule="evenodd" d="M9.62925 0.617459L18.7204 9.70856L18.1368 10.2928C16.0024 8.03733 12.9799 6.62922 9.62925 6.62922C6.25884 6.62922 3.22172 8.05248 1.08565 10.3313L0.5 9.74708L9.62925 0.617459Z"></path><path fill-rule="evenodd" clip-rule="evenodd" d="M33.4484 6.25634H36.5432L34.9893 3.51012L33.4484 6.25634ZM34.0336 0.678312H35.9413L41.3394 10.2882H38.8101L37.4125 7.84453H32.5676L31.2056 10.2882H28.696L34.0336 0.678312ZM48.6797 4.72269C48.9701 4.72182 49.222 4.69388 49.4338 4.63926C49.6375 4.58698 49.8062 4.50933 49.9389 4.4084C50.0699 4.30985 50.1671 4.18963 50.2317 4.04629C50.2996 3.89236 50.3347 3.70884 50.3347 3.49735C50.3347 3.29274 50.2996 3.11198 50.2304 2.95739C50.1652 2.81046 50.0665 2.68428 49.9351 2.58052C49.7989 2.47152 49.635 2.38984 49.443 2.33555C49.2441 2.27928 49.01 2.25026 48.7421 2.24938H44.8941V4.72269H48.6797ZM42.5424 0.678312H49.224C49.7556 0.678312 50.2349 0.739113 50.6601 0.86005C51.093 0.982878 51.4682 1.16887 51.7861 1.41628C52.1072 1.66689 52.3476 1.96621 52.5077 2.31317C52.6647 2.65337 52.7436 3.0382 52.7436 3.46647C52.7436 3.82265 52.6818 4.15673 52.5591 4.46726C52.4357 4.77951 52.2505 5.06512 52.0055 5.3233C51.7565 5.58293 51.4695 5.79356 51.1442 5.95442C50.9334 6.05911 50.7057 6.14302 50.4625 6.20631L53.0911 10.2882H50.5182L47.943 6.31111H44.8941V10.2882H42.5424V0.678312ZM62.8436 7.48499V6.49639H60.0362V4.92521H65.1956V7.91832L65.1549 8.04988C64.8946 8.44625 64.5929 8.79734 64.2525 9.10175C63.9068 9.41008 63.5226 9.67157 63.1005 9.88521C62.6763 10.098 62.2236 10.2583 61.7444 10.3649C61.2671 10.4707 60.7627 10.5242 60.2341 10.5242C60.1535 10.5242 60.0737 10.523 59.9943 10.5206C59.9163 10.523 59.8375 10.5242 59.7583 10.5242C58.952 10.5242 58.2122 10.4055 57.539 10.1685C56.8638 9.93049 56.2594 9.57401 55.7277 9.10025C55.1971 8.62612 54.7984 8.08713 54.5321 7.4842C54.2672 6.88447 54.1346 6.22356 54.1346 5.50277C54.1346 4.04994 54.6668 2.84722 55.7306 1.89954C56.264 1.42574 56.8682 1.06954 57.541 0.832033C58.2128 0.595016 58.951 0.47583 59.7553 0.47583C59.8341 0.47583 59.9125 0.477057 59.9903 0.479436C60.07 0.477057 60.1502 0.47583 60.2311 0.47583C60.7269 0.47583 61.2059 0.524484 61.6665 0.621768C62.1247 0.71872 62.5619 0.864414 62.9746 1.05853C63.3892 1.25328 63.7657 1.49007 64.1015 1.76673C64.4378 2.04364 64.7363 2.36257 64.9952 2.72164L65.1472 2.93142L63.5714 3.92486L63.2174 4.14574L63.0957 3.92486L62.936 3.65893C62.7861 3.40904 62.6043 3.18567 62.3909 2.99105C62.178 2.79753 61.9312 2.62972 61.6518 2.48977C61.3701 2.34793 61.0711 2.24086 60.7584 2.17006C60.5146 2.11595 60.2595 2.08217 59.9938 2.06973C59.5487 2.0904 59.1386 2.16946 58.7641 2.30665C58.3237 2.4676 57.9275 2.71003 57.5787 3.03222C57.2279 3.35574 56.9639 3.72321 56.7892 4.13118C56.6133 4.54194 56.5249 4.99961 56.5249 5.50277C56.5249 6.50314 56.8761 7.32721 57.5775 7.97221C57.9275 8.29441 58.3229 8.53558 58.762 8.69514C59.1371 8.83135 59.5492 8.91005 59.9963 8.93039C60.2482 8.9189 60.4867 8.88929 60.711 8.84147C61.0043 8.77896 61.2807 8.68454 61.5405 8.55867C61.7985 8.43237 62.0413 8.27428 62.2659 8.08514C62.4728 7.91147 62.6659 7.71122 62.8436 7.48499ZM69.2314 8.82045C69.5506 8.74944 69.7912 8.64652 69.9508 8.51342C70.1077 8.38296 70.2286 8.18426 70.3121 7.91832C70.4031 7.62913 70.4486 7.26394 70.4486 6.82278V0.678312H72.8008V7.12625C72.8008 7.71508 72.7109 8.22587 72.5319 8.65674C72.3469 9.10275 72.0662 9.46335 71.6929 9.73613C71.327 10.0035 70.8442 10.2033 70.2457 10.3345C69.6677 10.461 68.9795 10.5242 68.1826 10.5242C68.1063 10.5242 68.0302 10.5235 67.9541 10.5221C67.8729 10.5235 67.7905 10.5242 67.7068 10.5242C67.4999 10.5242 67.2936 10.5191 67.0899 10.5086C66.8872 10.4985 66.6952 10.4833 66.5172 10.4639L66.255 10.4349V8.79134C67.1145 8.92897 68.3728 9.01188 69.2314 8.82045ZM75.1621 0.627671H77.5332V10.2882H75.1621V0.627671ZM85.9606 4.72269C86.2504 4.72182 86.5011 4.69367 86.712 4.6395C86.9165 4.58648 87.0867 4.50866 87.2206 4.4074C87.3499 4.30984 87.4477 4.18791 87.5127 4.04391C87.5808 3.89209 87.6153 3.70962 87.6153 3.49735C87.6153 3.29344 87.5802 3.11336 87.5114 2.95916C87.4447 2.81069 87.3455 2.6835 87.2158 2.5798C87.0797 2.47274 86.9155 2.39055 86.7232 2.33605C86.5243 2.27978 86.2902 2.25026 86.0234 2.24938H82.1752V4.72269H85.9606ZM79.8234 0.678312H86.505C87.0365 0.678312 87.5162 0.739113 87.9413 0.859562C88.3746 0.982487 88.7503 1.16887 89.0673 1.41628C89.3879 1.6664 89.6291 1.9657 89.7886 2.31189C89.9459 2.65232 90.0247 3.03759 90.0247 3.46647C90.0247 3.82265 89.9631 4.157 89.8404 4.46781C89.7171 4.77896 89.5323 5.06462 89.2854 5.3233C89.0375 5.5833 88.7503 5.79407 88.4255 5.95469C88.2145 6.05911 87.9872 6.14302 87.7437 6.20631L90.3688 10.2882H87.799L85.224 6.31111H82.1752V10.2882H79.8234V0.678312Z"></path><path d="M95.609 6.25606H98.7038L97.15 3.50985L95.609 6.25606ZM96.1943 0.678036H98.102L103.5 10.2879H100.971L99.5731 7.84426H94.7283L93.3662 10.2879H90.8566L96.1943 0.678036Z"></path></svg>