<svg xmlns="http://www.w3.org/2000/svg" id="Group_9" data-name="Group 9" width="186.644" height="50.388" viewBox="0 0 186.644 50.388"><g id="logowhite"><path id="Path_37" data-name="Path 37" d="M11.349,59.791a5.52,5.52,0,0,1-1.377,1.558,5.945,5.945,0,0,1-3.742,1.316C2.485,62.665,0,60,0,56.018c0-4.252,2.814-7.366,6.676-7.366,2.276,0,4.552,1.288,4.552,2.575,0,.778-.509,1.528-1.048,1.528-.359,0-.539-.151-.957-.779a3.923,3.923,0,0,0-3.115-2.1c-2.216,0-3.743,2.186-3.743,5.3,0,3.414,1.916,5.6,4.7,5.6a5.911,5.911,0,0,0,3.863-1.557l.42.568" transform="translate(0 -22.647)" fill="black"></path><path id="Path_38" data-name="Path 38" d="M25.475,35.122a1.437,1.437,0,0,1,1.436-1.438,1.452,1.452,0,1,1-1.436,1.438m-2.1,18.834c1.707-.15,2.156-.718,2.156-2.546V44.522H23.616v-.806L27.061,41.5h.777V51.41c0,1.828.45,2.4,2.127,2.546v1.108H23.407Z" transform="translate(-11.311 -15.404)" fill="black"></path><path id="Path_39" data-name="Path 39" d="M43.784,50.06c-2.186,0-3.713,1.827-3.713,4.222,0,3.684,2.066,6.858,4.911,6.858,2.067,0,3.683-1.886,3.683-4.312,0-3.383-2.126-6.767-4.881-6.767M44.5,62.637c-3.8,0-6.738-3.174-6.738-7.306a6.668,6.668,0,0,1,6.528-6.738,6.753,6.753,0,0,1,6.679,7.037A6.725,6.725,0,0,1,44.5,62.637" transform="translate(-18.272 -22.618)" fill="black"></path><path id="Path_40" data-name="Path 40" d="M77.134,59.791a5.474,5.474,0,0,1-1.378,1.558,5.944,5.944,0,0,1-3.742,1.316c-3.744,0-6.228-2.666-6.228-6.647,0-4.252,2.814-7.366,6.677-7.366,2.274,0,4.55,1.288,4.55,2.575,0,.778-.508,1.528-1.047,1.528-.359,0-.54-.151-.958-.779a3.921,3.921,0,0,0-3.114-2.1c-2.217,0-3.743,2.186-3.743,5.3,0,3.414,1.916,5.6,4.7,5.6a5.917,5.917,0,0,0,3.863-1.557l.419.568" transform="translate(-31.83 -22.647)" fill="black"></path><path id="Path_41" data-name="Path 41" d="M101.092,59.791a5.527,5.527,0,0,1-1.377,1.558,5.951,5.951,0,0,1-3.744,1.316c-3.742,0-6.228-2.666-6.228-6.647,0-4.252,2.816-7.366,6.677-7.366,2.278,0,4.552,1.288,4.552,2.575,0,.778-.51,1.528-1.048,1.528-.359,0-.537-.151-.958-.779a3.92,3.92,0,0,0-3.113-2.1c-2.218,0-3.744,2.186-3.744,5.3,0,3.414,1.916,5.6,4.7,5.6a5.917,5.917,0,0,0,3.864-1.557l.418.568" transform="translate(-43.422 -22.647)" fill="black"></path><path id="Path_42" data-name="Path 42" d="M119.256,50.06c-2.186,0-3.713,1.827-3.713,4.222,0,3.684,2.067,6.858,4.91,6.858,2.068,0,3.684-1.886,3.684-4.312,0-3.383-2.126-6.767-4.881-6.767m.72,12.576c-3.8,0-6.738-3.174-6.738-7.306a6.668,6.668,0,0,1,6.528-6.738,6.751,6.751,0,0,1,6.677,7.037,6.726,6.726,0,0,1-6.468,7.006" transform="translate(-54.79 -22.618)" fill="black"></path><path id="Path_43" data-name="Path 43" d="M140.736,53.87c1.647-.151,2.1-.721,2.1-2.516V36.742h-1.916v-.807l3.325-2.367h.9V51.355c0,1.8.481,2.365,2.156,2.516v1.138h-6.558V53.87" transform="translate(-68.095 -15.348)" fill="black"></path><path id="Path_44" data-name="Path 44" d="M162.908,55.66c-2.845,1.108-5.24,2.007-5.24,3.653,0,.869.778,1.5,1.856,1.5.959,0,1.976-.509,3.384-1.738V55.66M155.751,52.1c1.559-2.335,3.474-3.5,5.6-3.5,2.366,0,3.833,1.348,3.833,3.5v7.726c0,.478.09.659.358.659a1.335,1.335,0,0,0,.778-.39.984.984,0,0,1,.48-.269c.09,0,.15.089.15.3a2.665,2.665,0,0,1-2.515,2.364c-1.527,0-1.527-1.736-1.527-2.425-1.856,1.8-3.055,2.425-4.731,2.425-1.827,0-2.995-.988-2.995-2.515,0-2.425,2.306-3.294,5.778-4.4.539-.18,1.018-.329,1.468-.48l.478-.18V52.935c0-1.617-.809-2.606-2.1-2.606-1.5,0-2.9.779-4.372,2.4Z" transform="translate(-75.085 -22.618)" fill="black"></path><path id="Path_45" data-name="Path 45" d="M186.29,47.991h-3.652v8.292c0,1.348.658,2.1,1.828,2.1a3.819,3.819,0,0,0,2.213-.928l.361.511a4.657,4.657,0,0,1-3.744,1.886c-1.946,0-2.963-1.108-2.963-3.2V47.991h-2.007V47.54l4.431-4.341h.482l-.509,3.234h4.1l-.54,1.558" transform="translate(-86.282 -20.008)" fill="black"></path><path id="Path_46" data-name="Path 46" d="M231.618,48.134h-3.653v8.294c0,1.348.66,2.1,1.828,2.1a3.82,3.82,0,0,0,2.215-.928l.359.509a4.647,4.647,0,0,1-3.742,1.884c-1.946,0-2.965-1.107-2.965-3.2V48.134h-2v-.449l4.43-4.342h.48l-.509,3.235h4.1l-.54,1.556" transform="translate(-108.214 -20.078)" fill="black"></path><path id="Path_47" data-name="Path 47" d="M249.769,55.8c-2.845,1.108-5.241,2.006-5.241,3.653,0,.868.778,1.5,1.856,1.5.959,0,1.976-.509,3.385-1.736V55.8m-7.158-3.564c1.557-2.335,3.473-3.5,5.6-3.5,2.363,0,3.832,1.347,3.832,3.5v7.726c0,.477.091.66.359.66a1.34,1.34,0,0,0,.778-.391.966.966,0,0,1,.48-.269c.088,0,.148.089.148.3a2.663,2.663,0,0,1-2.514,2.366c-1.527,0-1.527-1.735-1.527-2.423-1.858,1.8-3.056,2.423-4.731,2.423-1.826,0-3-.987-3-2.516,0-2.423,2.308-3.292,5.78-4.4.538-.181,1.017-.33,1.467-.481l.479-.18V53.08c0-1.618-.808-2.606-2.1-2.606-1.5,0-2.9.779-4.37,2.4Z" transform="translate(-117.112 -22.688)" fill="black"></path><path id="Path_48" data-name="Path 48" d="M265.829,54.015c1.648-.15,2.1-.721,2.1-2.515V36.887h-1.918v-.809l3.325-2.365h.9V51.5c0,1.8.48,2.365,2.155,2.515v1.137h-6.557V54.015" transform="translate(-128.62 -15.418)" fill="black"></path><path id="Path_49" data-name="Path 49" d="M282.136,35.267a1.439,1.439,0,0,1,1.439-1.437,1.453,1.453,0,1,1-1.439,1.437M280.042,54.1c1.707-.15,2.157-.717,2.157-2.545V44.669H280.28v-.808l3.443-2.215h.778v9.911c0,1.827.452,2.395,2.129,2.545v1.108h-6.559Z" transform="translate(-135.497 -15.475)" fill="black"></path><path id="Path_50" data-name="Path 50" d="M302.27,55.8c-2.846,1.108-5.238,2.006-5.238,3.653,0,.868.778,1.5,1.854,1.5.962,0,1.979-.509,3.385-1.736V55.8m-7.158-3.564c1.559-2.335,3.475-3.5,5.6-3.5,2.366,0,3.832,1.347,3.832,3.5v7.726c0,.477.09.66.359.66a1.341,1.341,0,0,0,.779-.391.973.973,0,0,1,.479-.269c.091,0,.151.089.151.3a2.665,2.665,0,0,1-2.514,2.366c-1.529,0-1.529-1.735-1.529-2.423-1.858,1.8-3.056,2.423-4.731,2.423-1.826,0-2.994-.987-2.994-2.516,0-2.423,2.306-3.292,5.781-4.4.538-.181,1.017-.33,1.464-.481l.48-.18V53.08c0-1.618-.808-2.606-2.1-2.606-1.495,0-2.9.779-4.37,2.4Z" transform="translate(-142.515 -22.688)" fill="black"></path><path id="Path_51" data-name="Path 51" d="M318.736,61.4c1.557-.15,2.007-.717,2.007-2.545v-6.8h-1.978v-.748l3.445-2.4h.809v3.5c2.695-2.963,4.463-3.5,5.51-3.5a3.157,3.157,0,0,1,3.084,3.382v6.559c0,1.827.419,2.365,1.886,2.545v1.108h-6.319V61.4c1.677-.18,2.127-.717,2.127-2.545v-5.57c0-1.677-.537-2.4-1.8-2.4s-2.4.719-4.465,2.846v5.12c0,1.827.45,2.395,2.069,2.545v1.108h-6.379V61.4" transform="translate(-154.219 -22.773)" fill="black"></path><path id="Path_52" data-name="Path 52" d="M350.94,35.267a1.437,1.437,0,0,1,1.436-1.437,1.453,1.453,0,1,1-1.436,1.437m-2.1,18.834c1.708-.15,2.157-.717,2.157-2.545V44.669h-1.918v-.808l3.443-2.215h.781v9.911c0,1.827.448,2.395,2.125,2.545v1.108h-6.557Z" transform="translate(-168.787 -15.475)" fill="black"></path><rect id="Rectangle_10" data-name="Rectangle 10" width="4.181" height="7.833" transform="translate(106.306)" fill="black"></rect><rect id="Rectangle_11" data-name="Rectangle 11" width="4.181" height="16.84" transform="translate(106.306 16.623)" fill="black"></rect><rect id="Rectangle_12" data-name="Rectangle 12" width="4.181" height="16.84" transform="translate(106.306 33.44)" fill="black"></rect><path id="Path_53" data-name="Path 53" d="M230.72,90.341c0-.379.112-.585.538-.585v-.129H229.5v.129h.167c.357,0,.478.19.478.723v.469c0,.388-.418.463-.727.463a1.98,1.98,0,0,1-1.794-2.216c0-1.192.677-1.972,1.572-1.972a1.4,1.4,0,0,1,1.443,1.175h.12V87.114h-.136a.218.218,0,0,1-.243.144,9.774,9.774,0,0,0-1.185-.2,2.3,2.3,0,0,0-2.239,2.407c0,1,.638,2.155,2.55,2.155a7.824,7.824,0,0,0,1.215-.106V90.341" transform="translate(-109.811 -41.227)" fill="black"></path><path id="Path_54" data-name="Path 54" d="M241.326,88.908H241.2c-.06.372-.174.425-.469.425h-1.215v-1.86h1.252c.48,0,.63.039.729.516h.082v-.728h-3.132v.129c.37,0,.49.151.49.69V90.8c0,.577-.15.684-.49.684v.129h3.132l.2-.813h-.131c-.256.569-.418.6-1.054.6h-.759c-.241,0-.318-.082-.318-.294V89.545h1.077c.448,0,.516.045.607.417h.131V88.908" transform="translate(-115.369 -41.327)" fill="black" fill-rule="evenodd"></path><path id="Path_55" data-name="Path 55" d="M251.99,88.072c0-.509.136-.682.562-.682v-.13h-1.312v.13c.378,0,.531.143.531.713v2.543h-.015l-2.719-3.386h-1.116v.13c.518.045.645.318.645.8v2.543c0,.629-.174.744-.538.744v.129h1.321v-.129c-.4,0-.57-.161-.57-.6V87.83h.015l3.066,3.78h.129V88.072" transform="translate(-119.956 -41.327)" fill="black"></path><path id="Path_56" data-name="Path 56" d="M261.123,88.08c0-.523.126-.692.49-.692V87.26H260.05v.129c.374,0,.494.147.494.692v2.709c0,.555-.138.693-.494.693v.128h1.563v-.128c-.364,0-.49-.161-.49-.693V88.08" transform="translate(-125.824 -41.327)" fill="black"></path><path id="Path_57" data-name="Path 57" d="M267.218,89.324c0-1.26.652-2.1,1.677-2.1.9,0,1.624.765,1.624,2.131,0,1.056-.568,2.1-1.663,2.1-.978,0-1.639-.858-1.639-2.125m-.668-.007a2.32,2.32,0,1,0,2.33-2.263,2.246,2.246,0,0,0-2.33,2.263" transform="translate(-128.969 -41.227)" fill="black" fill-rule="evenodd"></path><path id="Path_58" data-name="Path 58" d="M285.587,88.08c0-.523.129-.692.492-.692V87.26h-1.563v.129c.374,0,.494.147.494.692v2.709c0,.555-.136.693-.494.693v.128h1.563v-.128c-.363,0-.492-.161-.492-.693V88.08" transform="translate(-137.662 -41.327)" fill="black"></path><path id="Path_59" data-name="Path 59" d="M292.741,87.323h.66c.693,0,.835.259.918.621h.084v-.994h-.135a.994.994,0,0,1-.691.159H291.3a1.989,1.989,0,0,1-.418-.037.555.555,0,0,1-.234-.122h-.129v.994h.129c.037-.454.3-.621.886-.621h.632V90.64c0,.6-.183.69-.494.69v.129h1.542V91.33c-.374,0-.473-.141-.473-.666V87.323" transform="translate(-140.567 -41.177)" fill="black"></path><path id="Path_60" data-name="Path 60" d="M302.271,89.54H301.05l.607-1.844h.015l.6,1.844m.494,1.472c.1.3-.048.425-.342.425v.129h1.533v-.129c-.389,0-.494-.121-.624-.524l-1.26-3.742h-.447l-1.2,3.583c-.136.4-.234.621-.643.683v.129h1.123v-.129c-.456-.008-.378-.334-.237-.758l.3-.873h1.4Z" transform="translate(-145.05 -41.284)" fill="black" fill-rule="evenodd"></path><path id="Path_61" data-name="Path 61" d="M314.442,90.659h-.129c-.189.622-.333.736-.856.736h-.867c-.363,0-.492-.075-.492-.415V88.072c0-.463.12-.684.486-.684V87.26h-1.557v.129c.35,0,.494.131.494.632v2.732c0,.538-.144.729-.494.729v.128h3.151l.265-.95" transform="translate(-150.489 -41.327)" fill="black" fill-rule="evenodd"></path><path id="Path_62" data-name="Path 62" d="M321.421,88.08c0-.523.131-.692.492-.692V87.26h-1.561v.129c.373,0,.492.147.492.692v2.709c0,.555-.135.693-.492.693v.128h1.561v-.128c-.361,0-.492-.161-.492-.693V88.08" transform="translate(-155.001 -41.327)" fill="black"></path><path id="Path_63" data-name="Path 63" d="M328.795,89.54h-1.222l.607-1.844h.015l.6,1.844m.494,1.472c.1.3-.047.425-.342.425v.129h1.533v-.129c-.387,0-.495-.121-.621-.524L328.6,87.171h-.447l-1.2,3.583c-.136.4-.234.621-.643.683v.129h1.125v-.129c-.458-.008-.38-.334-.237-.758l.295-.873h1.4Z" transform="translate(-157.883 -41.284)" fill="black" fill-rule="evenodd"></path><path id="Path_64" data-name="Path 64" d="M341.269,88.072c0-.509.138-.682.562-.682v-.13h-1.312v.13c.381,0,.531.143.531.713v2.543h-.015l-2.719-3.386H337.2v.13c.516.045.645.318.645.8v2.543c0,.629-.174.744-.54.744v.129h1.321v-.129c-.4,0-.57-.161-.57-.6V87.83h.014l3.066,3.78h.129V88.072" transform="translate(-163.154 -41.327)" fill="black"></path><path id="Path_65" data-name="Path 65" d="M350.468,89.324c0-1.26.654-2.1,1.677-2.1.895,0,1.624.765,1.624,2.131,0,1.056-.568,2.1-1.66,2.1-.979,0-1.641-.858-1.641-2.125m-.667-.007a2.319,2.319,0,1,0,2.329-2.263,2.246,2.246,0,0,0-2.329,2.263" transform="translate(-169.25 -41.227)" fill="black" fill-rule="evenodd"></path><path id="Path_66" data-name="Path 66" d="M122.487,90.341c0-.379.114-.585.539-.585v-.129h-1.76v.129h.167c.357,0,.478.19.478.723v.469c0,.388-.418.463-.729.463a1.977,1.977,0,0,1-1.791-2.216c0-1.192.674-1.972,1.571-1.972A1.4,1.4,0,0,1,122.4,88.4h.121V87.114h-.137c-.045.107-.105.144-.242.144a9.822,9.822,0,0,0-1.184-.2,2.3,2.3,0,0,0-2.24,2.407c0,1,.637,2.155,2.551,2.155a7.811,7.811,0,0,0,1.214-.106V90.341" transform="translate(-57.443 -41.227)" fill="black"></path><path id="Path_67" data-name="Path 67" d="M133.093,88.908h-.13c-.06.372-.174.425-.47.425h-1.215v-1.86h1.253c.478,0,.63.039.729.516h.083v-.728H130.21v.129c.371,0,.493.151.493.69V90.8c0,.577-.153.684-.493.684v.129h3.134l.2-.813h-.129c-.258.569-.417.6-1.054.6H131.6c-.241,0-.318-.082-.318-.294V89.545h1.079c.446,0,.515.045.605.417h.13V88.908" transform="translate(-63.002 -41.327)" fill="black" fill-rule="evenodd"></path><path id="Path_68" data-name="Path 68" d="M143.459,90.659h-.129c-.19.622-.334.736-.858.736h-.865c-.365,0-.494-.075-.494-.415V88.072c0-.463.121-.684.486-.684V87.26h-1.556v.129c.349,0,.494.131.494.632v2.732c0,.538-.145.729-.494.729v.128h3.15l.266-.95" transform="translate(-67.759 -41.327)" fill="black" fill-rule="evenodd"></path><path id="Path_69" data-name="Path 69" d="M151.781,89.54h-1.222l.608-1.844h.014l.6,1.844m.494,1.472c.1.3-.045.425-.342.425v.129h1.534v-.129c-.387,0-.493-.121-.621-.524l-1.26-3.742h-.449l-1.2,3.583c-.137.4-.235.621-.645.683v.129h1.124v-.129c-.455-.008-.379-.334-.234-.758l.3-.873h1.4Z" transform="translate(-72.234 -41.284)" fill="black" fill-rule="evenodd"></path><path id="Path_70" data-name="Path 70" d="M161.325,87.323h.66c.69,0,.835.259.917.621h.084v-.994h-.137a1,1,0,0,1-.69.159h-2.275a2.01,2.01,0,0,1-.419-.037.593.593,0,0,1-.234-.122H159.1v.994h.128c.038-.454.3-.621.888-.621h.629V90.64c0,.6-.182.69-.492.69v.129H161.8V91.33c-.372,0-.471-.141-.471-.666V87.323" transform="translate(-76.981 -41.177)" fill="black"></path><path id="Path_71" data-name="Path 71" d="M170.236,89.324c0-1.26.654-2.1,1.677-2.1.9,0,1.624.765,1.624,2.131,0,1.056-.569,2.1-1.661,2.1-.979,0-1.64-.858-1.64-2.125m-.668-.007a2.32,2.32,0,1,0,2.33-2.263,2.246,2.246,0,0,0-2.33,2.263" transform="translate(-82.045 -41.227)" fill="black" fill-rule="evenodd"></path><path id="Path_72" data-name="Path 72" d="M190.521,88.908h-.127c-.062.372-.174.425-.471.425h-1.215v-1.86h1.252c.479,0,.632.039.729.516h.084v-.728h-3.134v.129c.373,0,.492.151.492.69V90.8c0,.577-.15.684-.492.684v.129h3.134l.2-.813h-.129c-.258.569-.417.6-1.056.6h-.757c-.244,0-.321-.082-.321-.294V89.545h1.077c.447,0,.519.045.609.417h.127V88.908" transform="translate(-90.789 -41.327)" fill="black" fill-rule="evenodd"></path></g></svg>